<?xml version="1.0" encoding="utf-8"?>
<!-- Generator: Adobe Illustrator 24.3.0, SVG Export Plug-In . SVG Version: 6.00 Build 0)  -->
<svg version="1.1" id="Layer_1" xmlns="http://www.w3.org/2000/svg" xmlns:xlink="http://www.w3.org/1999/xlink" x="0px" y="0px"
	 viewBox="0 0 200 200" style="enable-background:new 0 0 200 200;" xml:space="preserve">
<style type="text/css">
	.st0{fill:#FFFFFF;}
</style>
<g id="person-crop-circle">
	<g id="Regular-M" transform="translate(50.000000, 50.000000)">
		<path id="Shape" class="st0" d="M50.5,100.6c27.2,0,49.8-22.6,49.8-49.8c0-27.2-22.6-49.8-49.9-49.8C23.3,0.9,0.7,23.5,0.7,50.7
			C0.7,77.9,23.3,100.6,50.5,100.6z M50.5,67.4c-14.6,0-26,5.2-30.9,11.1C13,71.2,9.1,61.4,9.1,50.7c0-23,18.4-41.5,41.4-41.5
			S92,27.7,92,50.7c0,10.7-4,20.4-10.5,27.8C76.6,72.7,65.2,67.4,50.5,67.4z M50.5,59.1c9.4,0.1,16.7-7.9,16.7-18.4
			c0-9.9-7.4-18.1-16.7-18.1s-16.8,8.2-16.7,18.1C33.8,51.2,41.2,59,50.5,59.1z"/>
	</g>
</g>
</svg>
